<svg width="480" height="480" viewBox="0 0 480 480" fill="none" xmlns="http://www.w3.org/2000/svg">
<rect width="480" height="480" fill="black"/>
<path d="M95.6879 54.106C100.664 53.166 104.058 56.091 105.874 62.883C107.831 69.478 106.145 73.703 100.81 75.561C93.6489 78.103 89.1509 80.652 87.3239 83.206C85.4959 85.759 85.1229 89.908 86.2079 95.649L93.1489 135.91L130.917 336.234L134.307 338.501L136.813 340.178L368.902 314.112C370.881 313.339 372.362 312.336 373.338 311.09C375.259 308.635 376.406 303.659 376.785 296.173C377.032 290.606 380.599 287.803 387.478 287.763C394.504 287.536 398.282 289.906 398.811 294.871L401.304 334.862L343.165 341.044L373.613 396.158C374.569 397.545 375.403 398.49 376.147 398.971C377.279 399.702 378.359 399.966 379.381 399.758C381.532 399.278 383.175 399.024 384.306 399.003C385.491 399.077 386.543 399.923 387.464 401.529C389.303 404.741 387.965 407.637 383.448 410.224L369.089 418.447C364.465 421.095 361.261 420.863 359.475 417.745L356.93 413.012C356.741 412.732 356.55 412.45 356.384 412.148L318.046 342.769L179.868 358.292L148.701 411.88C148.617 412.026 148.517 412.162 148.427 412.302L145.338 417.7C143.552 420.818 140.353 421.059 135.741 418.419L121.423 410.217C116.919 407.637 115.58 404.736 117.418 401.524C118.338 399.918 119.393 399.079 120.574 399.003C121.702 399.021 123.344 399.266 125.491 399.742C126.511 399.95 127.588 399.692 128.717 398.961C129.849 398.228 131.228 396.442 132.852 393.608L134.717 390.345L134.806 390.395L151.63 361.462L146.552 362.035C143.247 362.661 139.698 363.124 136.166 363.204L135.692 363.263L135.684 363.206C130.059 363.277 124.516 362.377 120.148 359.63C114.193 355.884 110.759 348.873 108.754 341.756L108.746 341.764L108.723 341.641C107.589 337.583 106.902 333.5 106.515 329.962L71.5259 144.378L71.4269 144.41L56.1189 63.359L95.6859 54.106H95.6879ZM231.002 304.978C274.222 295.089 355.357 312.092 355.357 312.092C355.357 312.092 287.215 307.88 244.247 312.736C207.122 316.933 157.878 333.033 157.397 333.191C157.743 332.994 191.048 314.12 231.002 304.978ZM240.631 286.355C301.41 282.821 368.185 308.813 368.736 309.028C368.156 308.913 295.343 294.511 244.09 297.223C190.079 300.083 149.682 330.763 149.482 330.914C149.677 330.692 185.55 289.559 240.631 286.355ZM91.2539 103.83C91.7779 104.493 136.053 160.631 150.44 219.674C163.535 273.425 134.509 319.879 134.509 319.879C134.509 319.879 152.139 272.16 139.031 219.549C126.646 169.853 91.6819 104.626 91.2539 103.83ZM237.663 265.756C291.815 259.289 370.887 301.056 371.011 301.122C371.011 301.122 283.65 274.469 238.207 278.741C192.908 283.001 150.978 319.517 150.716 319.747C150.948 319.41 183.665 272.209 237.664 265.757L237.663 265.756ZM98.1469 99.34C98.7689 99.966 161.369 163.03 171 216.478C180.658 270.104 144.94 315.28 144.824 315.427C144.901 315.254 167.618 264.388 158.418 219.762C149.245 175.29 98.6709 100.117 98.1469 99.34ZM92.2469 117.521C92.6229 118.206 132.264 190.332 135.447 234.342C138.417 275.434 130.028 312.986 130.028 312.986C130.028 312.986 131.047 260.859 124.16 223.952C116.266 181.663 92.4919 118.173 92.2479 117.522L92.2469 117.521Z" fill="#00AB97"/>
</svg>
