<svg width="414" height="192" viewBox="0 0 414 192" fill="none" xmlns="http://www.w3.org/2000/svg">
<rect width="414" height="192" fill="black"/>
<path d="M37.8191 23.0684C39.8085 22.6932 41.1653 23.8609 41.8913 26.5724C42.6737 29.2053 41.9997 30.892 39.8668 31.6337C37.004 32.6486 35.2057 33.6662 34.4753 34.6858C33.7445 35.705 33.5954 37.3614 34.0292 39.6533L36.8041 55.7264L51.9032 135.7L53.2584 136.605L54.2603 137.275L147.046 126.868C147.837 126.56 148.429 126.159 148.82 125.662C149.588 124.682 150.046 122.695 150.198 119.707C150.296 117.484 151.722 116.365 154.473 116.349C157.281 116.259 158.792 117.205 159.003 119.187L160 135.152L136.757 137.62L148.93 159.623C149.312 160.177 149.645 160.554 149.943 160.746C150.395 161.038 150.827 161.143 151.236 161.06C152.095 160.869 152.752 160.767 153.204 160.759C153.678 160.788 154.099 161.126 154.467 161.767C155.202 163.05 154.667 164.206 152.861 165.238L147.121 168.521C145.272 169.578 143.991 169.486 143.277 168.241L142.26 166.351C142.184 166.24 142.108 166.127 142.042 166.007L126.715 138.309L71.4731 144.506L59.013 165.9C58.9794 165.958 58.9394 166.012 58.9034 166.068L57.6685 168.223C56.9545 169.468 55.6755 169.564 53.8317 168.51L48.1076 165.236C46.307 164.206 45.7717 163.048 46.5065 161.765C46.8743 161.124 47.296 160.789 47.7682 160.759C48.2191 160.766 48.8756 160.864 49.7339 161.054C50.1417 161.137 50.5723 161.034 51.0236 160.742C51.4762 160.449 52.0275 159.736 52.6768 158.605L53.4223 157.302L53.4579 157.322L60.1839 145.772L58.1538 146C56.8325 146.25 55.4137 146.435 54.0016 146.467L53.8121 146.491L53.8089 146.468C51.5602 146.496 49.3441 146.137 47.5979 145.04C45.2172 143.545 43.8443 140.746 43.0427 137.905L43.0395 137.908L43.0303 137.859C42.577 136.239 42.3023 134.609 42.1476 133.196L28.1595 59.107L28.1199 59.1198L22 26.7624L37.8183 23.0684H37.8191ZM91.9157 123.222C109.194 119.274 141.631 126.062 141.631 126.062C141.631 126.062 114.389 124.381 97.2109 126.319C82.3688 127.995 62.6818 134.422 62.4895 134.485C62.6278 134.407 75.9427 126.872 91.9157 123.222ZM95.7652 115.787C120.064 114.376 146.76 124.753 146.98 124.839C146.748 124.793 117.638 119.043 97.1481 120.126C75.5553 121.268 59.4051 133.516 59.3252 133.576C59.4031 133.488 73.7447 117.066 95.7652 115.787ZM36.0465 42.9193C36.256 43.184 53.9565 65.5955 59.7082 89.1668C64.9434 110.625 53.3392 129.171 53.3392 129.171C53.3392 129.171 60.3874 110.12 55.147 89.1169C50.1957 69.2772 36.2176 43.2371 36.0465 42.9193ZM94.5787 107.564C116.228 104.982 147.84 121.656 147.889 121.683C147.889 121.683 112.964 111.042 94.7962 112.748C76.6863 114.448 59.9233 129.026 59.8185 129.118C59.9113 128.984 72.9911 110.14 94.5791 107.564L94.5787 107.564ZM38.8022 41.1268C39.0509 41.3768 64.0774 66.5533 67.9278 87.8909C71.7889 109.3 57.5094 127.335 57.463 127.393C57.4938 127.324 66.5757 107.018 62.8977 89.2019C59.2304 71.4477 39.0117 41.437 38.8022 41.1268ZM36.4435 48.3851C36.5938 48.6586 52.4417 77.4528 53.7142 95.0226C54.9016 111.427 51.5478 126.419 51.5478 126.419C51.5478 126.419 51.9551 105.609 49.2018 90.8746C46.0459 73.992 36.5414 48.6454 36.4439 48.3855L36.4435 48.3851Z" fill="#00AB97"/>
<path d="M207.815 111.594C207.815 113.421 208.684 114.334 210.421 114.334H218.453C220.096 114.334 221.224 114.03 221.834 113.421C222.445 112.812 222.914 111.5 223.243 109.485C223.478 107.986 224.558 107.33 226.484 107.518C228.456 107.658 229.443 108.408 229.443 109.766L228.949 120.659H198.938V77.5804C198.938 76.0812 198.821 75.1208 198.586 74.6992C198.398 74.2307 198.14 73.9496 197.811 73.8559C196.919 73.6216 196.144 73.3405 195.486 73.0126C194.829 72.6846 194.5 72.0756 194.5 71.1854C194.5 69.6862 195.486 68.9366 197.459 68.9366H204.926C206.852 68.9366 207.815 69.6862 207.815 71.1854V111.594Z" fill="#00AB97"/>
<path d="M240.714 120.659H231.908V92.4788C231.908 91.0264 231.791 90.0426 231.556 89.5272C231.321 89.0119 231.063 88.6839 230.781 88.5434C229.936 88.3091 229.302 88.028 228.879 87.7001C228.456 87.3721 228.245 86.8802 228.245 86.2243C228.245 84.6314 229.255 83.8349 231.274 83.8349H237.685C239.705 83.8349 240.714 84.6782 240.714 86.3648V120.659ZM240.996 72.9423C240.996 74.4415 240.456 75.7299 239.376 76.8074C238.343 77.8381 237.075 78.3535 235.572 78.3535C234.069 78.3535 232.801 77.8381 231.767 76.8074C230.734 75.7299 230.218 74.4415 230.218 72.9423C230.218 71.4431 230.734 70.1547 231.767 69.0772C232.801 67.9528 234.069 67.3906 235.572 67.3906C237.075 67.3906 238.343 67.9528 239.376 69.0772C240.456 70.1547 240.996 71.4431 240.996 72.9423Z" fill="#00AB97"/>
<path d="M270.373 102.458C270.373 98.1476 269.622 94.8447 268.119 92.5491C266.663 90.2065 264.902 89.0353 262.835 89.0353C261.098 89.0353 259.571 89.902 258.256 91.6355C256.941 93.3221 256.284 95.6412 256.284 98.5927V105.269C256.284 109.064 256.965 111.711 258.327 113.21C259.689 114.662 261.215 115.388 262.906 115.388C264.737 115.388 266.428 114.287 267.978 112.086C269.575 109.884 270.373 106.674 270.373 102.458ZM256.213 85.4513C258.233 83.7647 260.816 82.9214 263.962 82.9214C268.941 82.9214 272.722 84.7017 275.305 88.2623C277.888 91.776 279.179 96.4376 279.179 102.247C279.179 107.635 277.817 112.132 275.093 115.74C272.369 119.347 268.448 121.151 263.328 121.151C259.806 121.151 257.059 120.191 255.086 118.27C253.959 119.863 252.01 120.659 249.239 120.659H247.548V75.8938C247.548 74.4883 247.431 73.5279 247.196 73.0126C246.961 72.4972 246.656 72.1693 246.28 72.0287C245.481 71.7476 244.894 71.4899 244.519 71.2557C244.143 70.9746 243.955 70.4358 243.955 69.6394C243.955 68.0465 244.941 67.25 246.914 67.25H253.184C255.203 67.25 256.213 68.023 256.213 69.5691V85.4513Z" fill="#00AB97"/>
<path d="M284.393 92.4788C284.393 90.9796 284.275 89.9957 284.04 89.5272C283.853 89.0119 283.594 88.6839 283.265 88.5434C282.514 88.356 281.88 88.0983 281.363 87.7703C280.894 87.3955 280.659 86.8333 280.659 86.0837C280.659 84.5845 281.669 83.8349 283.688 83.8349H289.888C291.954 83.8349 292.987 84.6782 292.987 86.3648V86.927C293.316 86.5991 293.668 86.2946 294.044 86.0135C296.158 84.1863 298.929 83.2727 302.357 83.2727H305.95V91.1436C301.441 90.1597 297.825 90.6985 295.101 92.7599C294.302 93.3221 293.598 94.1185 292.987 95.1492V120.659H284.393V92.4788Z" fill="#00AB97"/>
<path d="M318.419 120.659H309.613V92.4788C309.613 91.0264 309.496 90.0426 309.261 89.5272C309.026 89.0119 308.768 88.6839 308.486 88.5434C307.641 88.3091 307.007 88.028 306.584 87.7001C306.161 87.3721 305.95 86.8802 305.95 86.2243C305.95 84.6314 306.96 83.8349 308.979 83.8349H315.39C317.41 83.8349 318.419 84.6782 318.419 86.3648V120.659ZM318.701 72.9423C318.701 74.4415 318.161 75.7299 317.081 76.8074C316.048 77.8381 314.78 78.3535 313.277 78.3535C311.774 78.3535 310.506 77.8381 309.472 76.8074C308.439 75.7299 307.923 74.4415 307.923 72.9423C307.923 71.4431 308.439 70.1547 309.472 69.0772C310.506 67.9528 311.774 67.3906 313.277 67.3906C314.78 67.3906 316.048 67.9528 317.081 69.0772C318.161 70.1547 318.701 71.4431 318.701 72.9423Z" fill="#00AB97"/>
<path d="M322.505 102.106C322.505 96.4845 323.961 91.8932 326.873 88.3325C329.832 84.7251 334.106 82.9214 339.695 82.9214C345.331 82.9214 349.628 84.7251 352.587 88.3325C355.546 91.8932 357.025 96.4845 357.025 102.106C357.025 107.682 355.546 112.25 352.587 115.81C349.628 119.371 345.331 121.151 339.695 121.151C334.106 121.151 329.832 119.371 326.873 115.81C323.961 112.25 322.505 107.682 322.505 102.106ZM331.734 102.106C331.734 106.698 332.556 110.071 334.2 112.226C335.844 114.334 337.675 115.388 339.695 115.388C341.761 115.388 343.617 114.334 345.26 112.226C346.951 110.071 347.797 106.698 347.797 102.106C347.797 97.4683 346.951 94.0717 345.26 91.9166C343.617 89.7615 341.761 88.6839 339.695 88.6839C337.675 88.6839 335.844 89.7615 334.2 91.9166C332.556 94.0717 331.734 97.4683 331.734 102.106Z" fill="#00AB97"/>
<path d="M369.988 120.659H361.393V92.4788C361.393 90.9796 361.299 90.0191 361.111 89.5975C360.97 89.129 360.712 88.8245 360.336 88.6839C359.491 88.356 358.81 88.0514 358.293 87.7703C357.777 87.4892 357.518 86.927 357.518 86.0837C357.518 84.5845 358.505 83.8349 360.477 83.8349H366.959C368.978 83.8349 369.988 84.6782 369.988 86.3648V87.6298C370.505 87.0676 371.115 86.5288 371.82 86.0135C374.027 84.1863 376.681 83.2727 379.78 83.2727C383.162 83.2727 385.886 84.4206 387.952 86.7162C390.066 89.0119 391.123 92.877 391.123 98.3116V120.659H382.387V98.1711C382.387 94.8916 381.964 92.713 381.119 91.6355C380.273 90.5111 379.334 89.9489 378.301 89.9489C376.187 89.9957 374.097 91.331 372.031 93.9546C371.232 94.9853 370.551 96.1565 369.988 97.4683V120.659Z" fill="#00AB97"/>
</svg>
